<?xml version="1.0" standalone="no"?> <!DOCTYPE svg PUBLIC "-//W3C//DTD SVG 1.0//EN" "http://www.w3.org/TR/2001/REC-SVG-20010904/DTD/svg10.dtd" > <svg xmlns="http://www.w3.org/2000/svg" width="100%" height="100%">
<defs >
<font horiz-adv-x="1072" ><font-face
    font-family="Fine Style"
    units-per-em="2048"
    panose-1="2 0 5 0 0 0 0 0 0 0"
    ascent="1716"
    descent="-418"
    alphabetic="0" />
<missing-glyph horiz-adv-x="1014" d="M579 1653H515V1445Q267 1443 152 1267Q115 1211 110 1147Q88 890 189 800Q289 712 505 643Q510 641 515 640V15Q461 25 406 49Q314 89 252 155Q182 227 182 301H148V-17H170V-10Q170 18 189 43Q210 70 237 70Q245 70 253
67Q295 52 362 27Q461 -10 515 -22V-225H579V-28Q773 -19 887 116Q989 238 989 409Q989 571 894 672Q822 752 579 824V1405Q707 1381 804 1276Q876 1202 876 1127H910V1445H902Q901 1414 875 1392L865 1384V1386Q845 1374 821 1374Q809 1374 756 1398Q677 1433
643 1439H639Q617 1443 594 1446L586 1447H583Q581 1447 579 1448V1653ZM515 843Q368 889 297 953Q277 971 263 994L261 996Q254 1008 248 1020Q242 1034 238 1049Q234 1059 230 1070Q225 1100 226 1130Q230 1268 291 1327Q360 1417 515 1412V843ZM686 576T744
527Q848 440 844 301Q841 162 773 85Q705 9 585 9H579V617Q686 576 744 527Z" />
<glyph unicode=" " glyph-name="space" horiz-adv-x="508" />
<glyph unicode="!" glyph-name="exclam" horiz-adv-x="672" d="M313 328L264 1364Q264 1410 285 1433T347 1456Q389 1456 409 1433T430 1364L350 328H313ZM223 167L305 251Q320 265 334 265Q347 265 365 249L445 163Q457 147 457 134Q457 119 443 103L363 15Q343
-5 334 -5Q318 -5 305 9L217 110Q207 123 207 136Q207 151 223 167Z" />
<glyph unicode="&quot;" glyph-name="quotedbl" horiz-adv-x="672" d="M197 1108H167L105 1467Q101 1490 101 1500Q101 1537 121 1557T181 1577Q220 1577 241 1558T263 1501Q263 1493 259 1467L197 1108ZM509 1108H479L417 1467Q413 1490 413 1500Q413 1537 433
1557T493 1577Q532 1577 553 1558T575 1501Q575 1493 571 1467L509 1108Z" />
<glyph unicode="#" glyph-name="numbersign" horiz-adv-x="1336" d="M596 859L511 569H753L839 859H596ZM673 1434H766L625 957H867L1009 1434H1101L960 957H1219L1190 860H931L848 570H1127L1097 472H817L677 0H585L724 472H484L342 0H250L390 472H117L147 570H418L504
860H209L238 957H533L673 1434Z" />
<glyph unicode="$" glyph-name="dollar" horiz-adv-x="1014" d="M579 1653H515V1445Q267 1443 152 1267Q115 1211 110 1147Q88 890 189 800Q289 712 505 643Q510 641 515 640V15Q461 25 406 49Q314 89 252 155Q182 227 182 301H148V-17H170V-10Q170 18 189 43Q210
70 237 70Q245 70 253 67Q295 52 362 27Q461 -10 515 -22V-225H579V-28Q773 -19 887 116Q989 238 989 409Q989 571 894 672Q822 752 579 824V1405Q707 1381 804 1276Q876 1202 876 1127H910V1445H902Q901 1414 875 1392L865 1384V1386Q845 1374 821 1374Q809 1374
756 1398Q677 1433 643 1439H639Q617 1443 594 1446L586 1447H583Q581 1447 579 1448V1653ZM515 843Q368 889 297 953Q277 971 263 994L261 996Q254 1008 248 1020Q242 1034 238 1049Q234 1059 230 1070Q225 1100 226 1130Q230 1268 291 1327Q360 1417 515 1412V843ZM686
576T744 527Q848 440 844 301Q841 162 773 85Q705 9 585 9H579V617Q686 576 744 527Z" />
<glyph unicode="%" glyph-name="percent" horiz-adv-x="1610" d="M449 1459Q547 1459 639 1410T784 1271T836 1080Q836 981 786 892T643 752T449 701Q349 701 257 751T113 891T62 1080Q62 1180 114 1270T258 1410T449 1459ZM206 1066Q219 974 261 893T368 768Q425
728 482 728Q489 728 495 729Q558 732 610 782T683 918Q696 972 696 1029Q696 1061 692 1094Q680 1187 636 1269T529 1394Q471 1432 414 1432H403Q342 1429 290 1380T217 1245Q202 1187 202 1128Q202 1097 206 1066ZM297 -29L1237 1432H1321L383 -29H297ZM1161
738Q1258 738 1351 689T1496 549T1548 359Q1548 259 1498 170T1355 30T1161 -20Q1060 -20 968 30T825 169T774 359Q774 458 826 548T970 688T1161 738ZM918 344Q931 252 973 171T1080 46Q1139 7 1196 7H1207Q1270 10 1322 60T1395 196Q1408 250 1408 307Q1408 339
1404 372Q1392 465 1348 547T1241 672Q1183 710 1126 710H1115Q1054 707 1002 658T929 523Q914 465 914 406Q914 375 918 344Z" />
<glyph unicode="&amp;" glyph-name="ampersand" horiz-adv-x="1683" d="M1051 196L497 879Q379 879 318 793T256 589Q256 498 291 408T393 243Q465 160 558 116T752 72Q840 72 921 105T1051 196ZM1394 0Q1338 0 1255 25T1088 157Q1021 83 913 34T672 -16Q443 -16
298 134T152 520Q152 681 228 786T453 938Q411 999 391 1054T370 1165Q370 1270 447 1362T629 1454Q697 1454 771 1415Q780 1409 789 1409Q812 1409 827 1454H873L969 1173H923Q868 1306 768 1351Q683 1388 627 1388Q562 1388 521 1343T480 1225Q480 1094 582 958L1113
288Q1211 434 1234 532Q1251 610 1251 662Q1251 759 1189 759H1099V809H1542V759H1452Q1357 759 1307 532Q1276 400 1152 240Q1261 104 1400 104H1416Q1559 121 1608 232L1657 231L1554 0H1394Z" />
<glyph unicode="&apos;" glyph-name="quotesingle" horiz-adv-x="346" d="M197 1108H167L105 1467Q101 1490 101 1500Q101 1537 121 1557T181 1577Q220 1577 241 1558T263 1501Q263 1493 259 1467L197 1108Z" />
<glyph unicode="(" glyph-name="parenleft" horiz-adv-x="758" d="M252 601Q254 878 351 1131T620 1573H700Q528 1331 470 1135Q413 942 413 612V590Q413 260 470 68Q528 -128 700 -370H620Q449 -181 352 71T252 601Z" />
<glyph unicode=")" glyph-name="parenright" horiz-adv-x="758" d="M138 -370H58Q230 -128 288 68Q345 260 345 590V612Q345 942 288 1135Q230 1331 58 1573H138Q309 1384 406 1131T506 601Q504 324 407 72T138 -370Z" />
<glyph unicode="*" glyph-name="asterisk" horiz-adv-x="1024" d="M498 1294Q494 1365 461 1424Q424 1490 424 1508Q424 1540 447 1559T510 1579Q547 1579 571 1561T596 1514Q596 1493 560 1425Q527 1364 523 1295Q589 1320 636 1370Q687 1425 705 1431Q716 1434
726 1434Q744 1434 761 1424Q787 1407 799 1371Q805 1352 805 1335Q805 1320 801 1307Q791 1277 763 1269Q757 1267 744 1267Q719 1267 668 1276Q640 1281 613 1281Q572 1281 532 1270Q576 1215 637 1187Q705 1155 716 1140Q729 1122 729 1102Q729 1093 727 1085Q719
1055 688 1032Q659 1010 629 1010Q628 1010 628 1011Q597 1011 580 1034Q568 1051 558 1128Q548 1195 511 1253Q473 1195 465 1129Q456 1054 445 1039Q426 1014 396 1012H391Q363 1012 334 1033Q304 1054 295 1084Q291 1094 291 1104Q291 1121 302 1136Q315 1153
385 1187Q446 1216 490 1269Q449 1280 410 1280Q383 1280 357 1275Q303 1264 279 1264Q270 1264 265 1266Q235 1275 224 1304Q218 1317 218 1333Q218 1350 224 1369Q235 1404 260 1422Q277 1434 294 1434Q303 1434 312 1431Q332 1425 386 1369Q433 1320 498 1294Z"
/>
<glyph unicode="+" glyph-name="plus" horiz-adv-x="1014" d="M437 647H87V787H437V1156L438 1157H577V787H926L927 786V647H577V277H437V647Z" />
<glyph unicode="," glyph-name="comma" horiz-adv-x="557" d="M361 96T361 127Q360 220 303 263Q255 298 196 290Q137 282 101 234Q101 234 101 233Q100 232 100 232Q62 183 75 118Q84 75 114 44Q144 15 182 10Q229 -2 273 17Q294 -108 12 -201L15 -216Q313 -162
347 18Q361 96 361 127Z" />
<glyph unicode="-" glyph-name="hyphen" horiz-adv-x="670" d="M156 409Q116 409 116 437V520Q116 549 157 549H513Q554 549 554 520V437Q554 409 514 409H156Z" />
<glyph unicode="." glyph-name="period" horiz-adv-x="557" d="M372 83T328 41Q284 0 222 0Q161 0 117 41Q73 83 73 142Q73 201 117 243Q161 284 222 284Q284 284 328 243Q372 201 372 142Q372 83 328 41Z" />
<glyph unicode="/" glyph-name="slash" horiz-adv-x="569" d="M93 -50H13L554 1434H634L93 -50Z" />
<glyph unicode="0" glyph-name="zero" horiz-adv-x="1217" d="M682 1323T681 1323Q681 1324 681 1324Q681 1324 681 1323Q682 1323 682 1323Q682 1323 681 1323ZM643 1332T635 1333Q643 1332 648 1331Q643 1332 635 1333ZM616 1335T606 1336Q616 1335 626 1334Q616
1335 606 1336ZM662 1328T659 1329Q662 1328 667 1327Q662 1328 659 1329ZM256 641H257Q256 656 256 675Q256 688 257 703H256V709Q258 1335 603 1348Q946 1335 949 709V703H948Q949 688 949 676Q949 656 948 641H949V635Q945 51 631 16Q630 15 629 17Q628 18 628
18Q633 18 604 18H603Q574 18 578 18Q259 53 256 635V641ZM586 -33Q705 -27 811 27Q918 81 982 169Q1140 384 1157 636V641H1160V646Q1160 660 1159 681Q1159 688 1160 703H1158L1157 708Q1139 990 982 1204Q920 1289 824 1349Q708 1422 586 1428H580H574Q469 1422
359 1351Q263 1289 200 1204Q67 1023 48 708L47 703H45Q45 693 46 685Q45 664 45 641H48V636Q66 351 200 169Q263 84 366 29Q469 -27 574 -33H580H586ZM564 1332T559 1331Q565 1332 572 1333Q564 1332 559 1331ZM545 1328T542 1328Q545 1328 547 1329Q545 1328
542 1328ZM603 1336Q592 1335 580 1334Q592 1335 603 1336V1336Z" />
<glyph unicode="1" glyph-name="one" horiz-adv-x="679" d="M273 1451L97 1258V1231L272 1381V70L159 45V3H596V45L471 70V1451H273Z" />
<glyph unicode="2" glyph-name="two" horiz-adv-x="1081" d="M788 1174T681 1270Q574 1366 450 1366Q239 1366 109 1236H81V1285Q130 1334 224 1388Q318 1441 454 1441Q681 1441 834 1321Q987 1202 987 1028Q987 901 793 684Q609 478 209 146H733Q915 146 992
233H1053L925 3H33L34 53Q386 364 599 654Q788 910 788 1028Q788 1174 681 1270Z" />
<glyph unicode="3" glyph-name="three" horiz-adv-x="918" d="M613 817T498 831Q661 890 736 969Q812 1047 812 1133Q812 1297 686 1380Q560 1463 369 1463Q268 1463 177 1450Q86 1436 86 1416V1261H139Q139 1325 207 1370Q274 1414 359 1414Q496 1401 564 1322Q632
1243 632 1134Q632 1003 552 927Q470 848 372 807V788Q538 741 592 641Q648 539 648 438Q648 275 566 160Q483 45 297 45Q134 45 28 94Q17 99 15 99V29Q123 1 284 1Q508 1 686 131Q864 261 864 422Q864 579 739 698Q613 817 498 831Z" />
<glyph unicode="4" glyph-name="four" horiz-adv-x="1177" d="M1039 1436L775 1433L45 376V337H769V77L659 52V6H1088V52L966 77V337H1066L1115 448H966V1378L1039 1403V1436ZM769 1323V448H191L769 1323Z" />
<glyph unicode="5" glyph-name="five" horiz-adv-x="1177" d="M630 904T348 904L476 1292H1080L1135 1436H395L217 858Q285 864 323 864Q540 864 675 758Q810 653 810 494Q810 264 728 148Q646 32 460 32Q296 32 192 78Q86 126 86 212H23V109Q23 65 140 27Q258
-12 447 -12Q671 -12 848 119Q1026 250 1026 483Q1026 658 826 782Q630 904 348 904Z" />
<glyph unicode="6" glyph-name="six" horiz-adv-x="1098" d="M729 30T802 126Q876 221 876 366Q876 563 757 690Q639 816 501 816Q393 816 308 718Q223 619 223 475Q223 326 336 178Q449 30 609 30Q729 30 802 126ZM897 1389Q687 1378 510 1215Q333 1052 233 761Q332
839 369 861Q462 916 549 916Q873 913 995 696Q1058 583 1058 423Q1058 311 991 209Q924 108 821 51Q717 -5 620 -5Q332 -5 185 153Q39 311 39 514Q39 825 287 1131Q534 1436 897 1436V1389Z" />
<glyph unicode="7" glyph-name="seven" horiz-adv-x="1261" d="M233 1432Q200 1431 189 1431Q183 1431 182 1431L176 1436V1432H65V1096L84 1088Q89 1086 91 1090Q93 1105 143 1198Q199 1302 227 1322Q295 1375 385 1378Q552 1378 947 1379H959L953 1370L62 -1L265
-5L1158 1380L1211 1406V1432H233Z" />
<glyph unicode="8" glyph-name="eight" horiz-adv-x="1133" d="M760 857T803 956Q836 1030 836 1094Q836 1114 832 1133Q818 1213 768 1286Q718 1358 645 1395Q577 1427 514 1427H503Q433 1424 373 1382Q313 1339 288 1264Q272 1215 272 1165Q272 1137 277 1108Q292
1029 341 958Q389 886 610 833Q760 857 803 956ZM371 767T288 632Q219 518 219 428Q219 410 221 393Q239 290 297 199Q356 107 444 59Q523 16 602 16H618Q704 20 775 75Q846 131 876 227Q894 288 894 353Q894 388 888 425Q874 536 797 636Q720 735 512 788Q371
767 288 632ZM766 800T815 779Q942 724 1014 622Q1085 520 1085 409Q1085 298 1016 198Q946 97 819 41Q693 -15 555 -15Q417 -15 290 41Q163 97 94 198Q24 298 24 409Q24 520 95 622Q166 724 293 779Q344 800 394 814Q365 823 335 835Q229 878 171 957Q113 1035
113 1121Q113 1207 172 1287Q231 1366 337 1409Q442 1451 555 1451Q666 1451 772 1409Q878 1366 937 1287Q997 1207 997 1121Q997 1035 939 957Q881 878 776 835Q745 822 714 814Q766 800 815 779Z" />
<glyph unicode="9" glyph-name="nine" horiz-adv-x="1098" d="M369 1401T295 1305Q222 1210 222 1065Q222 868 340 741Q459 615 596 615Q704 615 789 713Q875 812 875 956Q875 1105 761 1253Q648 1401 488 1401Q369 1401 295 1305ZM200 42Q410 53 587 216Q764
379 864 670Q766 592 728 570Q636 515 549 515Q225 518 103 735Q39 848 39 1008Q39 1120 106 1222Q173 1323 277 1380Q380 1436 478 1436Q766 1436 912 1278Q1058 1120 1058 917Q1058 606 811 300Q563 -5 200 -5V42Z" />
<glyph unicode=":" glyph-name="colon" horiz-adv-x="518" d="M366 708T322 666Q278 625 216 625Q155 625 111 666Q67 708 67 767Q67 826 111 868Q155 909 216 909Q278 909 322 868Q366 826 366 767Q366 708 322 666ZM366 83T322 42Q278 0 216 0Q155 0 111 42Q67
83 67 142Q67 201 111 243Q155 285 216 285Q278 285 322 243Q366 201 366 142Q366 83 322 42Z" />
<glyph unicode=";" glyph-name="semicolon" horiz-adv-x="479" d="M349 136T349 167Q348 260 291 303Q243 338 184 330Q125 322 89 274Q89 274 89 273Q88 272 88 272Q50 223 63 158Q72 115 102 84Q132 55 170 50Q217 38 261 57Q282 -68 0 -161L3 -176Q301 -122
335 58Q349 136 349 167ZM366 708T322 666Q278 625 216 625Q155 625 111 666Q67 708 67 767Q67 826 111 868Q155 909 216 909Q278 909 322 868Q366 826 366 767Q366 708 322 666Z" />
<glyph unicode="&lt;" glyph-name="less" horiz-adv-x="1014" d="M927 1074L302 715L927 360V193L87 674V757L927 1241V1074Z" />
<glyph unicode="=" glyph-name="equal" horiz-adv-x="1014" d="M87 631H927V491H87V631ZM87 943H927V803H87V943Z" />
<glyph unicode="&gt;" glyph-name="greater" horiz-adv-x="1014" d="M87 1241L927 757V674L87 193V360L712 715L87 1074V1241Z" />
<glyph unicode="?" glyph-name="question" horiz-adv-x="748" d="M132 1330Q260 1434 374 1434Q506 1434 586 1366T666 1184Q666 1115 634 1044T509 858Q419 745 368 671T316 528Q316 465 351 339H304Q254 477 254 550Q254 659 370 862T487 1171Q487 1253 440
1300T310 1347Q226 1347 132 1266V1330ZM223 167L305 251Q320 265 334 265Q347 265 365 249L445 163Q457 147 457 134Q457 119 443 103L363 15Q343 -5 334 -5Q318 -5 305 9L217 110Q207 123 207 136Q207 151 223 167Z" />
<glyph unicode="@" glyph-name="at" horiz-adv-x="2019" d="M972 622Q889 612 821 542T753 343Q753 236 817 149T1000 62Q1097 67 1126 229V705Q1072 642 972 622ZM1360 29Q1297 30 1260 47T1198 101Q1169 64 1116 37T983 9Q839 9 727 109T614 343Q615 430 667
509T799 624T973 674Q1040 690 1083 716T1126 791Q1124 860 1085 916T956 972Q884 972 835 913T784 788H739V947Q739 967 811 987Q884 1007 989 1007Q1098 1005 1182 943T1267 785V196Q1267 79 1361 79Q1546 114 1628 270T1710 653Q1690 988 1478 1193Q1281 1381
998 1381Q793 1381 606 1244T336 888Q269 710 269 527Q269 214 398 16T703 -275T1022 -367Q1296 -367 1597 -159V-234Q1334 -418 1026 -418Q786 -418 565 -296T222 46T100 508Q100 750 224 972T569 1314T1026 1434Q1388 1434 1635 1204T1882 638Q1882 368 1706
199Q1531 31 1360 29Z" />
<glyph unicode="A" glyph-name="A" horiz-adv-x="1224" d="M610 1443L196 53L0 29V0H452V29L244 53L347 389H805L908 53L740 30V0H1192V30L1084 53L1082 56L669 1443H610ZM575 1140L790 439H362L575 1140Z" />
<glyph unicode="B" glyph-name="B" horiz-adv-x="1067" d="M535 87T323 84V736Q544 735 570 735Q741 735 800 634Q838 568 838 426Q838 250 729 157Q647 87 550 87Q535 87 323 84ZM323 1402Q504 1400 517 1400Q601 1400 672 1339Q767 1257 767 1102Q767 966 733
908Q707 861 655 833Q603 805 541 805Q537 805 471 797Q405 790 373 790H323V1402ZM871 813T901 861Q956 949 956 1131Q956 1299 812 1377Q742 1415 600 1437Q552 1444 445 1436H0V1408L137 1383V66L0 41V-5H497Q616 9 656 13Q782 25 889 121Q950 174 990 250Q1035
335 1035 418Q1035 550 966 644Q903 729 795 769Q871 813 901 861Z" />
<glyph unicode="C" glyph-name="C" horiz-adv-x="1047" d="M29 649Q47 383 198 185Q271 88 383 33Q494 -22 618 -22Q747 -22 842 55Q923 121 1031 292Q1013 367 1002 404Q969 287 890 185Q772 33 615 33Q246 33 242 648V655Q243 676 243 689Q243 699 242 718V724Q244
1040 339 1203Q433 1367 614 1367Q726 1367 802 1316Q876 1264 926 1181L929 1176Q998 1060 1008 999Q1009 988 1015 988H1019V1391L989 1396Q961 1389 936 1379Q921 1373 913 1373Q899 1373 830 1396L762 1418H767Q691 1441 616 1441Q467 1441 335 1349Q254 1293
197 1217Q48 1021 28 724V718V655L29 649Z" />
<glyph unicode="D" glyph-name="D" horiz-adv-x="1187" d="M335 67V1392H341Q561 1392 572 1392Q779 1392 872 1185Q944 1028 945 764Q949 667 950 655V655V648Q947 358 850 207Q754 56 572 56Q561 56 341 67H335ZM1143 406T1162 682Q1165 712 1164 731Q1164 740
1164 742V746Q1164 754 1162 776Q1146 1016 994 1242Q916 1358 731 1405Q636 1429 552 1429H23V1394L160 1369V48L23 23V-7H594Q829 -7 995 211Q1143 406 1162 682Z" />
<glyph unicode="E" glyph-name="E" horiz-adv-x="997" d="M17 1430V1407L155 1382V55L17 30V0H945V355L938 361Q939 361 938 360Q936 345 895 253Q847 150 822 129Q763 68 679 64L331 63V873L451 872Q523 869 578 823Q597 807 644 699Q647 691 652 679L657 684V1112L654
1115L653 1113Q599 988 577 971Q523 925 448 922H331V1380H722Q781 1365 820 1331Q844 1312 892 1212Q932 1149 940 1122L945 1126V1430H17Z" />
<glyph unicode="F" glyph-name="F" horiz-adv-x="963" d="M6 1430V1408L144 1383V60L6 35V5H456V35L319 60V873L438 872Q511 870 565 823Q584 808 631 700Q634 692 639 681L644 686V1111L641 1115L640 1112Q585 988 564 971Q511 925 436 923L319 922V1398L708
1397Q768 1382 806 1348Q830 1329 878 1231Q918 1148 926 1121L931 1124V1430H6Z" />
<glyph unicode="G" glyph-name="G" horiz-adv-x="1317" d="M844 647H971V227L970 225Q928 148 856 101Q745 32 657 32Q258 32 258 653V730Q258 1048 362 1213Q465 1379 662 1379Q783 1379 865 1328Q946 1274 1000 1191L1004 1185Q1079 1069 1090 1007Q1091 996
1099 996L1127 997Q1133 997 1133 1006Q1148 1255 1172 1347Q1176 1363 1174 1367Q1173 1369 1164 1371Q1153 1374 1150 1374Q1147 1374 1144 1369L1115 1321L1113 1320Q1091 1316 1075 1316Q1042 1316 1004 1348Q951 1392 884 1413V1413L877 1415Q770 1453 665
1453Q392 1453 208 1227Q45 1028 23 729V660V654Q44 386 208 186Q288 88 409 32Q530 -23 665 -23Q720 -23 818 3Q859 14 878 18Q1042 128 1162 35V647H1277V698H844V647Z" />
<glyph unicode="H" glyph-name="H" horiz-adv-x="1233" d="M756 1436V1414L880 1389V914H311V1389L423 1413V1436H0V1414L124 1389V60L0 36V6H423V36L311 61V864H880V60L756 36V6H1178V36L1066 61V1389L1178 1413V1436H756Z" />
<glyph unicode="I" glyph-name="I" horiz-adv-x="473" d="M16 1430V1407L129 1382V46L16 21V-8H441V21L316 46V1382L441 1407V1430H16Z" />
<glyph unicode="J" glyph-name="J" horiz-adv-x="676" d="M447 13Q445 -120 390 -217Q346 -293 310 -299Q294 -304 273 -304Q228 -304 195 -280Q158 -252 158 -208Q158 -181 184 -134Q215 -79 201 -52Q174 1 120 1Q82 1 49 -23Q17 -46 13 -71Q3 -136 43 -209Q88
-290 165 -311Q214 -325 270 -325Q302 -325 324 -321Q394 -306 439 -278Q592 -182 624 -2V3Q625 4 624 12Q623 22 623 27V1436H222V1411L444 1382L447 13Z" />
<glyph unicode="K" glyph-name="K" horiz-adv-x="1239" d="M710 1430V1408L888 1382L323 935V1382L435 1407V1430H11V1408L136 1383V50L11 25V-5H435V25L323 50V797L871 51L772 25V-5H1196V25L1060 49L1059 51L399 931L959 1383L1134 1408V1430H710Z" />
<glyph unicode="L" glyph-name="L" horiz-adv-x="1002" d="M949 412Q883 173 837 138Q778 58 689 55L335 53V1390L460 1415V1441H35V1415L160 1390V56L22 31V1H949V412Z" />
<glyph unicode="M" glyph-name="M" horiz-adv-x="1571" d="M1168 1441L811 380L463 1441H23V1415L161 1390V51L23 26V0H361V26L223 51V1363L675 70L686 50H775L1213 1345V51L1088 26V0H1514V26L1401 51V1390L1514 1415V1441H1168Z" />
<glyph unicode="N" glyph-name="N" horiz-adv-x="1351" d="M993 1434V1408L1130 1383V405L510 1434H10V1408L197 1383V51L60 26V0H396V26L259 51V1381L1103 0H1192V1383L1329 1408V1434H993Z" />
<glyph unicode="O" glyph-name="O" horiz-adv-x="1255" d="M694 1361T689 1362Q693 1361 700 1360Q694 1361 689 1362ZM671 1365T663 1366Q671 1365 678 1364Q671 1365 663 1366ZM641 1368T630 1369Q641 1368 654 1367Q641 1368 630 1369ZM710 1357T713 1357Q710
1357 718 1355Q710 1357 713 1357ZM250 665H252Q251 680 251 699Q251 712 252 727H250L251 733Q254 1368 629 1381Q1002 1368 1006 733V727H1004Q1005 713 1005 700Q1005 680 1004 665H1006V659Q1002 89 683 34V34Q672 32 660 31Q659 31 658 32Q656 33 656 33Q661
33 629 33V33Q597 33 601 33Q407 53 320 255Q252 409 251 659L250 665ZM616 -20Q744 -15 860 40Q975 96 1046 185Q1215 399 1233 659V665H1230V668Q1230 674 1231 686Q1232 698 1232 705Q1232 709 1234 716Q1236 724 1236 727H1234L1233 733Q1214 1021 1046 1234Q976
1322 872 1382Q749 1454 616 1460H610H605Q481 1454 362 1382Q263 1322 193 1234Q44 1045 23 733L22 727H20Q21 714 21 708Q20 687 20 665H23V659Q43 375 193 185Q264 96 374 40Q485 -15 605 -20L610 -21L616 -20ZM629 1371Q621 1371 604 1370Q622 1371 629 1371V1371ZM587
1365T581 1364Q588 1365 595 1366Q587 1365 581 1364ZM565 1361T561 1360Q566 1361 568 1362Q565 1361 561 1360Z" />
<glyph unicode="P" glyph-name="P" horiz-adv-x="1109" d="M328 681V1389H508Q500 1388 580 1388Q694 1388 778 1320Q888 1229 888 1045Q888 906 844 831Q810 772 743 729Q669 682 593 682Q565 682 334 681H328ZM866 634T969 751Q1071 869 1071 1051Q1071 1137
1021 1229Q978 1310 916 1365Q845 1428 670 1440Q665 1440 585 1440Q505 1441 505 1441H0V1423L144 1396V62L0 36V0H472V36L328 62V603H536Q560 602 694 616Q866 634 969 751Z" />
<glyph unicode="Q" glyph-name="Q" horiz-adv-x="1272" d="M644 1365T657 1363Q645 1365 633 1365Q644 1365 657 1363ZM717 1353T726 1351Q718 1353 716 1353Q717 1353 726 1351ZM675 1361T666 1362Q675 1361 682 1360Q675 1361 666 1362ZM697 1358T692 1359Q697
1358 705 1356Q697 1358 692 1359ZM624 1365T606 1363Q624 1365 632 1365Q624 1365 606 1363ZM849 142L840 152Q798 200 780 215Q752 238 720 248Q650 270 551 228Q495 204 436 156Q437 151 438 148V146L439 122L429 131Q251 274 249 669V675H250Q249 690 249 710Q249
723 250 738H249V744Q252 1365 632 1378Q1010 1365 1013 744V738H1012Q1012 723 1013 710Q1012 690 1012 675H1013V669Q1010 293 853 146L849 142ZM704 75Q669 67 632 66Q531 69 456 118L448 123L456 128Q483 145 505 153Q565 175 614 160Q654 147 707 85L714 77L704
75ZM1154 8T1125 -4Q1060 -29 1009 -13Q984 -6 968 8Q942 29 904 80L899 86L906 89Q1008 146 1060 210Q1224 410 1243 670L1244 675H1246V678Q1246 699 1246 720Q1246 725 1246 738H1244L1243 744Q1223 1028 1053 1235Q982 1322 877 1382Q753 1452 619 1458H613H607Q482
1452 362 1382Q262 1322 190 1235Q40 1052 18 744V738H15Q16 736 15 731Q14 725 14 722Q14 716 12 698Q11 683 11 677V675H18V670Q39 394 190 210Q260 124 372 71Q484 18 607 12H613Q615 12 616 12H619Q682 14 742 28L746 29L748 26Q798 -35 831 -64Q859 -87 897
-99Q970 -122 1073 -78Q1141 -49 1210 11Q1198 18 1183 27Q1154 8 1125 -4ZM567 1358T562 1357Q568 1358 571 1358Q567 1358 562 1357ZM589 1361T583 1360Q590 1361 598 1362Q589 1361 583 1360Z" />
<glyph unicode="R" glyph-name="R" horiz-adv-x="1329" d="M331 682V1389L338 1388Q527 1384 553 1381Q738 1361 819 1283Q900 1205 900 1046Q900 904 856 828Q822 770 754 728Q679 681 601 681Q573 681 338 682H331ZM813 492T822 386Q836 222 851 176Q864 133
896 97Q960 24 1109 -1Q1159 -10 1218 -10Q1270 -10 1329 -3Q1321 13 1311 34H1308Q1262 34 1222 42Q1131 61 1086 111Q1064 136 1056 160Q1043 201 1038 281Q1027 426 1003 504Q991 542 960 577Q918 625 835 652L818 657L835 664Q961 716 1032 821Q1103 926 1103
1061Q1103 1297 817 1392Q669 1441 513 1441H0V1419L146 1393V53L0 27V-6H477V27L331 53V599H540Q544 599 550 599Q736 599 771 550Q813 492 822 386Z" />
<glyph unicode="S" glyph-name="S" horiz-adv-x="918" d="M461 1454Q455 1455 445 1454Q433 1453 429 1453H424Q172 1453 56 1275Q19 1219 14 1155Q-8 898 93 808Q193 720 409 651Q571 599 648 535Q752 447 748 309Q745 170 677 93Q609 16 489 16V16Q402 16 310
57Q218 97 156 162Q86 235 86 309H52V-9H74Q74 -7 74 -6Q74 -4 74 -3Q74 26 93 51Q114 77 141 77Q149 77 157 75Q199 60 266 34Q385 -10 439 -18Q450 -20 471 -20Q674 -15 791 124Q893 246 893 417Q893 578 798 680Q723 763 462 838L451 841Q279 889 201 961Q181
979 167 1001L165 1004Q158 1016 152 1028Q146 1042 142 1056Q138 1067 134 1078Q129 1107 130 1138Q134 1276 195 1334Q266 1427 428 1419T708 1284Q780 1210 780 1135H814V1453H806Q805 1421 779 1400L769 1392V1394Q749 1382 725 1382Q713 1382 660 1406Q581
1441 547 1447V1446L543 1447Q521 1451 498 1454L490 1455V1455H487Q476 1456 463 1457L461 1464V1454Z" />
<glyph unicode="T" glyph-name="T" horiz-adv-x="1216" d="M30 1436V1095L55 1115Q61 1130 77 1172Q134 1301 155 1319Q216 1376 297 1380Q307 1380 399 1380H509V53L366 27V0H832V27L690 53V1379L701 1380H812Q900 1380 909 1380Q990 1376 1051 1319Q1073 1300
1136 1160Q1148 1128 1154 1115L1181 1095V1436H30Z" />
<glyph unicode="U" glyph-name="U" horiz-adv-x="1337" d="M884 1429V1403L1073 1378V387Q1073 237 996 154Q892 47 710 47Q525 47 405 187Q310 296 338 1372V1377L454 1403V1429H0V1403L151 1378V1372Q169 363 192 276Q238 97 421 25Q514 -15 679 -15Q910 -15
1032 98Q1136 187 1136 358V1378L1313 1403V1429H884Z" />
<glyph unicode="V" glyph-name="V" horiz-adv-x="1243" d="M758 1438V1412L1009 1386L669 271L329 1385L462 1411V1438H0V1411L149 1386L151 1382L573 0H634L1057 1386L1220 1411V1438H758Z" />
<glyph unicode="W" glyph-name="W" horiz-adv-x="2117" d="M1613 1436V1410L1864 1384L1525 271L1185 1383L1331 1409V1436H843V1409L1003 1384L1013 1381L679 277L338 1383L472 1409V1436H10V1409L159 1384L160 1380L582 0H643L1036 1285L1429 0H1489L1912 1384L2074
1409V1436H1613Z" />
<glyph unicode="X" glyph-name="X" horiz-adv-x="1049" d="M609 1438V1418L861 1392L578 850L366 1391L505 1417V1438H39V1418L186 1392L187 1389L478 687L172 59L0 33V0H466V33L221 59L506 640L608 396L754 60L609 33V0H1075V33L935 56L624 751H627L609 800L909
1390L1075 1418V1438H609Z" />
<glyph unicode="Y" glyph-name="Y" horiz-adv-x="1193" d="M10 1441V1418L121 1393L122 1391L524 647V55L411 30V0H837V30L712 55V693L1017 1378L1175 1402V1428H774V1402L970 1377L967 1369L666 707L308 1393L436 1418V1441H10Z" />
<glyph unicode="Z" glyph-name="Z" horiz-adv-x="1029" d="M1002 337L992 344Q992 343 992 343Q990 328 947 237Q898 135 873 116L869 112Q813 64 760 62Q614 61 269 60H258L263 70L985 1429H22V1099L38 1092Q43 1089 45 1093Q47 1109 90 1204Q139 1312 164 1332Q223
1383 302 1386H758L20 0H1002V337Z" />
<glyph unicode="[" glyph-name="bracketleft" horiz-adv-x="682" d="M608 -406H168V1387H608V1308H318V-328H608V-406Z" />
<glyph unicode="\" glyph-name="backslash" horiz-adv-x="569" d="M83 1422L573 -28H493L3 1422H83Z" />
<glyph unicode="]" glyph-name="bracketright" horiz-adv-x="682" d="M75 1387H515V-407H75V-328H365V1308H75V1387Z" />
<glyph unicode="^" glyph-name="asciicircum" horiz-adv-x="961" d="M498 1384L923 667H831L481 1253L131 667H37L468 1384H498Z" />
<glyph unicode="_" glyph-name="underscore" horiz-adv-x="1024" d="M1042 -442H-17V-358H1042V-442Z" />
<glyph unicode="`" glyph-name="grave" horiz-adv-x="682" d="M118 1390H341L447 1045H412L118 1390Z" />
<glyph unicode="a" glyph-name="a" horiz-adv-x="1217" d="M610 1443L196 53L0 29V0H452V29L244 53L347 389H805L908 53L740 30V0H1192V30L1084 53L1082 56L669 1443H610ZM575 1140L790 439H362L575 1140Z" />
<glyph unicode="b" glyph-name="b" horiz-adv-x="1067" d="M535 87T323 84V736Q544 735 570 735Q741 735 800 634Q838 568 838 426Q838 250 729 157Q647 87 550 87Q535 87 323 84ZM323 1402Q504 1400 517 1400Q601 1400 672 1339Q767 1257 767 1102Q767 966 733
908Q707 861 655 833Q603 805 541 805Q537 805 471 797Q405 790 373 790H323V1402ZM871 813T901 861Q956 949 956 1131Q956 1299 812 1377Q742 1415 600 1437Q552 1444 445 1436H0V1408L137 1383V66L0 41V-5H497Q616 9 656 13Q782 25 889 121Q950 174 990 250Q1035
335 1035 418Q1035 550 966 644Q903 729 795 769Q871 813 901 861Z" />
<glyph unicode="c" glyph-name="c" horiz-adv-x="1047" d="M29 649Q47 383 198 185Q271 88 383 33Q494 -22 618 -22Q747 -22 842 55Q923 121 1031 292Q1013 367 1002 404Q969 287 890 185Q772 33 615 33Q246 33 242 648V655Q243 676 243 689Q243 699 242 718V724Q244
1040 339 1203Q433 1367 614 1367Q726 1367 802 1316Q876 1264 926 1181L929 1176Q998 1060 1008 999Q1009 988 1015 988H1019V1391L989 1396Q961 1389 936 1379Q921 1373 913 1373Q899 1373 830 1396L762 1418H767Q691 1441 616 1441Q467 1441 335 1349Q254 1293
197 1217Q48 1021 28 724V718V655L29 649Z" />
<glyph unicode="d" glyph-name="d" horiz-adv-x="1187" d="M335 67V1392H341Q561 1392 572 1392Q779 1392 872 1185Q944 1028 945 764Q949 667 950 655V655V648Q947 358 850 207Q754 56 572 56Q561 56 341 67H335ZM1143 406T1162 682Q1165 712 1164 731Q1164 740
1164 742V746Q1164 754 1162 776Q1146 1016 994 1242Q916 1358 731 1405Q636 1429 552 1429H23V1394L160 1369V48L23 23V-7H594Q829 -7 995 211Q1143 406 1162 682Z" />
<glyph unicode="e" glyph-name="e" horiz-adv-x="997" d="M17 1430V1407L155 1382V55L17 30V0H945V355L938 361Q939 361 938 360Q936 345 895 253Q847 150 822 129Q763 68 679 64L331 63V873L451 872Q523 869 578 823Q597 807 644 699Q647 691 652 679L657 684V1112L654
1115L653 1113Q599 988 577 971Q523 925 448 922H331V1380H722Q781 1365 820 1331Q844 1312 892 1212Q932 1149 940 1122L945 1126V1430H17Z" />
<glyph unicode="f" glyph-name="f" horiz-adv-x="963" d="M6 1430V1408L144 1383V60L6 35V5H456V35L319 60V873L438 872Q511 870 565 823Q584 808 631 700Q634 692 639 681L644 686V1111L641 1115L640 1112Q585 988 564 971Q511 925 436 923L319 922V1398L708
1397Q768 1382 806 1348Q830 1329 878 1231Q918 1148 926 1121L931 1124V1430H6Z" />
<glyph unicode="g" glyph-name="g" horiz-adv-x="1317" d="M844 647H971V227L970 225Q928 148 856 101Q745 32 657 32Q258 32 258 653V730Q258 1048 362 1213Q465 1379 662 1379Q783 1379 865 1328Q946 1274 1000 1191L1004 1185Q1079 1069 1090 1007Q1091 996
1099 996L1127 997Q1133 997 1133 1006Q1148 1255 1172 1347Q1176 1363 1174 1367Q1173 1369 1164 1371Q1153 1374 1150 1374Q1147 1374 1144 1369L1115 1321L1113 1320Q1091 1316 1075 1316Q1042 1316 1004 1348Q951 1392 884 1413V1413L877 1415Q770 1453 665
1453Q392 1453 208 1227Q45 1028 23 729V660V654Q44 386 208 186Q288 88 409 32Q530 -23 665 -23Q720 -23 818 3Q859 14 878 18Q1042 128 1162 35V647H1277V698H844V647Z" />
<glyph unicode="h" glyph-name="h" horiz-adv-x="1233" d="M756 1436V1414L880 1389V914H311V1389L423 1413V1436H0V1414L124 1389V60L0 36V6H423V36L311 61V864H880V60L756 36V6H1178V36L1066 61V1389L1178 1413V1436H756Z" />
<glyph unicode="i" glyph-name="i" horiz-adv-x="473" d="M16 1430V1407L129 1382V46L16 21V-8H441V21L316 46V1382L441 1407V1430H16Z" />
<glyph unicode="j" glyph-name="j" horiz-adv-x="676" d="M447 13Q445 -120 390 -217Q346 -293 310 -299Q294 -304 273 -304Q228 -304 195 -280Q158 -252 158 -208Q158 -181 184 -134Q215 -79 201 -52Q174 1 120 1Q82 1 49 -23Q17 -46 13 -71Q3 -136 43 -209Q88
-290 165 -311Q214 -325 270 -325Q302 -325 324 -321Q394 -306 439 -278Q592 -182 624 -2V3Q625 4 624 12Q623 22 623 27V1436H222V1411L444 1382L447 13Z" />
<glyph unicode="k" glyph-name="k" horiz-adv-x="1239" d="M710 1430V1408L888 1382L323 935V1382L435 1407V1430H11V1408L136 1383V50L11 25V-5H435V25L323 50V797L871 51L772 25V-5H1196V25L1060 49L1059 51L399 931L959 1383L1134 1408V1430H710Z" />
<glyph unicode="l" glyph-name="l" horiz-adv-x="1002" d="M949 412Q883 173 837 138Q778 58 689 55L335 53V1390L460 1415V1441H35V1415L160 1390V56L22 31V1H949V412Z" />
<glyph unicode="m" glyph-name="m" horiz-adv-x="1571" d="M1168 1441L811 380L463 1441H23V1415L161 1390V51L23 26V0H361V26L223 51V1363L675 70L686 50H775L1213 1345V51L1088 26V0H1514V26L1401 51V1390L1514 1415V1441H1168Z" />
<glyph unicode="n" glyph-name="n" horiz-adv-x="1351" d="M995 1435V1409L1132 1384V405L512 1435H12V1409L199 1384V51L62 26V0H398V26L261 51V1382L1105 0H1194V1384L1331 1409V1435H995Z" />
<glyph unicode="o" glyph-name="o" horiz-adv-x="1255" d="M694 1361T689 1362Q693 1361 700 1360Q694 1361 689 1362ZM671 1365T663 1366Q671 1365 678 1364Q671 1365 663 1366ZM641 1368T630 1369Q641 1368 654 1367Q641 1368 630 1369ZM710 1357T713 1357Q710
1357 718 1355Q710 1357 713 1357ZM250 665H252Q251 680 251 699Q251 712 252 727H250L251 733Q254 1368 629 1381Q1002 1368 1006 733V727H1004Q1005 713 1005 700Q1005 680 1004 665H1006V659Q1002 89 683 34V34Q672 32 660 31Q659 31 658 32Q656 33 656 33Q661
33 629 33V33Q597 33 601 33Q407 53 320 255Q252 409 251 659L250 665ZM616 -20Q744 -15 860 40Q975 96 1046 185Q1215 399 1233 659V665H1230V668Q1230 674 1231 686Q1232 698 1232 705Q1232 709 1234 716Q1236 724 1236 727H1234L1233 733Q1214 1021 1046 1234Q976
1322 872 1382Q749 1454 616 1460H610H605Q481 1454 362 1382Q263 1322 193 1234Q44 1045 23 733L22 727H20Q21 714 21 708Q20 687 20 665H23V659Q43 375 193 185Q264 96 374 40Q485 -15 605 -20L610 -21L616 -20ZM629 1371Q621 1371 604 1370Q622 1371 629 1371V1371ZM587
1365T581 1364Q588 1365 595 1366Q587 1365 581 1364ZM565 1361T561 1360Q566 1361 568 1362Q565 1361 561 1360Z" />
<glyph unicode="p" glyph-name="p" horiz-adv-x="1109" d="M328 681V1389H508Q500 1388 580 1388Q694 1388 778 1320Q888 1229 888 1045Q888 906 844 831Q810 772 743 729Q669 682 593 682Q565 682 334 681H328ZM866 634T969 751Q1071 869 1071 1051Q1071 1137
1021 1229Q978 1310 916 1365Q845 1428 670 1440Q665 1440 585 1440Q505 1441 505 1441H0V1423L144 1396V62L0 36V0H472V36L328 62V603H536Q560 602 694 616Q866 634 969 751Z" />
<glyph unicode="q" glyph-name="q" horiz-adv-x="1272" d="M644 1365T657 1363Q645 1365 633 1365Q644 1365 657 1363ZM717 1353T726 1351Q718 1353 716 1353Q717 1353 726 1351ZM675 1361T666 1362Q675 1361 682 1360Q675 1361 666 1362ZM697 1358T692 1359Q697
1358 705 1356Q697 1358 692 1359ZM624 1365T606 1363Q624 1365 632 1365Q624 1365 606 1363ZM849 142L840 152Q798 200 780 215Q752 238 720 248Q650 270 551 228Q495 204 436 156Q437 151 438 148V146L439 122L429 131Q251 274 249 669V675H250Q249 690 249 710Q249
723 250 738H249V744Q252 1365 632 1378Q1010 1365 1013 744V738H1012Q1012 723 1013 710Q1012 690 1012 675H1013V669Q1010 293 853 146L849 142ZM704 75Q669 67 632 66Q531 69 456 118L448 123L456 128Q483 145 505 153Q565 175 614 160Q654 147 707 85L714 77L704
75ZM1154 8T1125 -4Q1060 -29 1009 -13Q984 -6 968 8Q942 29 904 80L899 86L906 89Q1008 146 1060 210Q1224 410 1243 670L1244 675H1246V678Q1246 699 1246 720Q1246 725 1246 738H1244L1243 744Q1223 1028 1053 1235Q982 1322 877 1382Q753 1452 619 1458H613H607Q482
1452 362 1382Q262 1322 190 1235Q40 1052 18 744V738H15Q16 736 15 731Q14 725 14 722Q14 716 12 698Q11 683 11 677V675H18V670Q39 394 190 210Q260 124 372 71Q484 18 607 12H613Q615 12 616 12H619Q682 14 742 28L746 29L748 26Q798 -35 831 -64Q859 -87 897
-99Q970 -122 1073 -78Q1141 -49 1210 11Q1198 18 1183 27Q1154 8 1125 -4ZM567 1358T562 1357Q568 1358 571 1358Q567 1358 562 1357ZM589 1361T583 1360Q590 1361 598 1362Q589 1361 583 1360Z" />
<glyph unicode="r" glyph-name="r" horiz-adv-x="1329" d="M331 682V1389L338 1388Q527 1384 553 1381Q738 1361 819 1283Q900 1205 900 1046Q900 904 856 828Q822 770 754 728Q679 681 601 681Q573 681 338 682H331ZM813 492T822 386Q836 222 851 176Q864 133
896 97Q960 24 1109 -1Q1159 -10 1218 -10Q1270 -10 1329 -3Q1321 13 1311 34H1308Q1262 34 1222 42Q1131 61 1086 111Q1064 136 1056 160Q1043 201 1038 281Q1027 426 1003 504Q991 542 960 577Q918 625 835 652L818 657L835 664Q961 716 1032 821Q1103 926 1103
1061Q1103 1297 817 1392Q669 1441 513 1441H0V1419L146 1393V53L0 27V-6H477V27L331 53V599H540Q544 599 550 599Q736 599 771 550Q813 492 822 386Z" />
<glyph unicode="s" glyph-name="s" horiz-adv-x="918" d="M461 1454Q455 1455 445 1454Q433 1453 429 1453H424Q172 1453 56 1275Q19 1219 14 1155Q-8 898 93 808Q193 720 409 651Q571 599 648 535Q752 447 748 309Q745 170 677 93Q609 16 489 16V16Q402 16 310
57Q218 97 156 162Q86 235 86 309H52V-9H74Q74 -7 74 -6Q74 -4 74 -3Q74 26 93 51Q114 77 141 77Q149 77 157 75Q199 60 266 34Q385 -10 439 -18Q450 -20 471 -20Q674 -15 791 124Q893 246 893 417Q893 578 798 680Q723 763 462 838L451 841Q279 889 201 961Q181
979 167 1001L165 1004Q158 1016 152 1028Q146 1042 142 1056Q138 1067 134 1078Q129 1107 130 1138Q134 1276 195 1334Q266 1427 428 1419T708 1284Q780 1210 780 1135H814V1453H806Q805 1421 779 1400L769 1392V1394Q749 1382 725 1382Q713 1382 660 1406Q581
1441 547 1447V1446L543 1447Q521 1451 498 1454L490 1455V1455H487Q476 1456 463 1457L461 1464V1454Z" />
<glyph unicode="t" glyph-name="t" horiz-adv-x="1216" d="M30 1436V1095L55 1115Q61 1130 77 1172Q134 1301 155 1319Q216 1376 297 1380Q307 1380 399 1380H509V53L366 27V0H832V27L690 53V1379L701 1380H812Q900 1380 909 1380Q990 1376 1051 1319Q1073 1300
1136 1160Q1148 1128 1154 1115L1181 1095V1436H30Z" />
<glyph unicode="u" glyph-name="u" horiz-adv-x="1337" d="M884 1429V1403L1073 1378V387Q1073 237 996 154Q892 47 710 47Q525 47 405 187Q310 296 338 1372V1377L454 1403V1429H0V1403L151 1378V1372Q169 363 192 276Q238 97 421 25Q514 -15 679 -15Q910 -15
1032 98Q1136 187 1136 358V1378L1313 1403V1429H884Z" />
<glyph unicode="v" glyph-name="v" horiz-adv-x="1239" d="M756 1436V1410L1007 1384L668 271L328 1383L462 1409V1436H0V1409L149 1384L150 1380L572 0H633L1056 1384L1218 1409V1436H756Z" />
<glyph unicode="w" glyph-name="w" horiz-adv-x="2117" d="M1613 1436V1410L1864 1384L1525 271L1185 1383L1331 1409V1436H843V1409L1003 1384L1013 1381L679 277L338 1383L472 1409V1436H10V1409L159 1384L160 1380L582 0H643L1036 1285L1429 0H1489L1912 1384L2074
1409V1436H1613Z" />
<glyph unicode="x" glyph-name="x" horiz-adv-x="1049" d="M609 1438V1418L861 1392L578 850L366 1391L505 1417V1438H39V1418L186 1392L187 1389L478 687L172 59L0 33V0H466V33L221 59L506 640L608 396L754 60L609 33V0H1075V33L935 56L624 751H627L609 800L909
1390L1075 1418V1438H609Z" />
<glyph unicode="y" glyph-name="y" horiz-adv-x="1241" d="M30 1441V1418L141 1393L142 1391L544 647V55L431 30V0H857V30L732 55V693L1037 1378L1195 1402V1428H794V1402L990 1377L987 1369L686 707L328 1393L456 1418V1441H30Z" />
<glyph unicode="z" glyph-name="z" horiz-adv-x="1029" d="M1002 337L992 344Q992 343 992 343Q990 328 947 237Q898 135 873 116L869 112Q813 64 760 62Q614 61 269 60H258L263 70L985 1429H22V1099L38 1092Q43 1089 45 1093Q47 1109 90 1204Q139 1312 164 1332Q223
1383 302 1386H758L20 0H1002V337Z" />
<glyph unicode="{" glyph-name="braceleft" horiz-adv-x="1014" d="M240 698Q412 703 463 769T514 902V1370Q514 1444 591 1511T776 1579H884V1529H794Q733 1529 687 1496T640 1404V904Q640 821 580 746T437 669V667Q519 666 580 591T641 433L640 -67Q641 -125
687 -158T794 -192H884V-242H776Q668 -242 592 -175T514 -33V435Q514 501 463 567T240 638V698Z" />
<glyph unicode="|" glyph-name="bar" horiz-adv-x="1014" d="M427 1577H587V-418H427V1577Z" />
<glyph unicode="}" glyph-name="braceright" horiz-adv-x="1014" d="M774 638Q602 633 551 567T500 435V-33Q499 -107 423 -174T238 -242H130V-192H220Q281 -192 327 -159T374 -67L373 433Q373 516 434 591T578 667V669Q495 670 435 745T374 904V1404Q373 1462
327 1495T220 1529H130V1579H238Q346 1579 423 1512T500 1370V902Q500 835 551 769T774 698V638Z" />
<glyph unicode="~" glyph-name="asciitilde" horiz-adv-x="1014" d="M923 878V722Q860 650 801 625T685 599Q625 599 508 647T331 696Q280 696 224 668T94 556V712Q158 785 217 811T331 837Q395 837 512 788T685 738Q737 738 793 766T923 878Z" />
</font>
</defs>
</svg>
